#!OML:ASF X:\für Bonn\!DataBase\2005_08_12_Daniel\c3d\Daniel.ASF
:FULLY-SPECIFIED
:DEGREES
47
root 10.1361 18.2861 11.3222 -175.098 -47.073 175.721
lowerback 9.58152 -5.32812 -2.68782
upperback 1.59117 -7.51798 -1.56683
thorax -3.55105 -3.74658 0.800193
lowerneck -8.34919 3.79184 -5.40978
upperneck 2.57571 5.57036 0.245519
head 2.09105 2.70223 1.24102
rclavicle 9.19379e-014 -2.94201e-014
rhumerus -70.3925 12.0895 -100.371
rradius 88.6418
rwrist -5.78991
rhand -19.2964 27.395
rfingers 7.12502
rthumb 7.01908 -2.46864
lclavicle 9.19379e-014 -2.94201e-014
lhumerus -52.505 -4.04945 90.6067
lradius 121.609
lwrist 14.0739
lhand -13.6936 -14.4272
lfingers 7.12502
lthumb 12.4245 15.1835
rfemur -31.6732 -4.62202 19.2514
rtibia 61.3604
rfoot 0.0988728 -0.362323
rtoes -14.2437
lfemur 11.0238 -5.93717 -27.1034
ltibia 25.79
lfoot 1.57013 3.54332
ltoes -1.83802
48
root 9.85298 18.378 11.0226 -174.77 -47.1552 175.62
lowerback 8.99084 -5.53338 -2.77344
upperback 1.51168 -7.7684 -1.50087
thorax -3.27982 -3.87185 0.882302
lowerneck -8.45972 3.92095 -5.19111
upperneck 3.02714 5.74405 0.160811
head 2.2638 2.78031 1.19697
rclavicle -4.13472e-014 1.51076e-014
rhumerus -70.7633 12.515 -100.318
rradius 88.5806
rwrist -6.00075
rhand -18.9135 26.5797
rfingers 7.12502
rthumb 7.38868 -3.27128
lclavicle -4.13472e-014 1.51076e-014
lhumerus -52.5037 -4.93712 90.8204
lradius 121.882
lwrist 13.7519
lhand -13.2022 -14.9793
lfingers 7.12502
lthumb 12.8983 14.6021
rfemur -31.3788 -4.05585 19.2296
rtibia 57.2013
rfoot 0.156956 -0.872753
rtoes -16.2085
lfemur 11.9952 -5.57918 -26.8243
ltibia 25.2449
lfoot 4.71432 3.15011
ltoes -2.43392
49
root 9.57003 18.4593 10.7239 -174.418 -47.2017 175.459
lowerback 8.43362 -5.72039 -2.87481
upperback 1.41718 -7.99869 -1.45612
thorax -3.04281 -3.98674 0.949443
lowerneck -8.51505 4.04689 -5.03684
upperneck 3.46472 5.91332 0.135629
head 2.42018 2.8579 1.18132
rclavicle 7.7526e-015 2.94201e-014
rhumerus -71.0044 12.9047 -100.283
rradius 88.496
rwrist -6.30402
rhand -18.4476 25.6054
rfingers 7.12502
rthumb 7.83835 -4.22934
lclavicle 7.7526e-015 2.94201e-014
lhumerus -52.6464 -5.83303 91.0694
lradius 122.073
lwrist 13.3765
lhand -12.8608 -15.6159
lfingers 7.12502
lthumb 13.2274 13.9444
rfemur -30.9469 -3.38224 19.0572
rtibia 53.002
rfoot -0.0328075 -1.50341
rtoes -17.3417
lfemur 12.8122 -5.16747 -26.5993
ltibia 25.0593
lfoot 7.35721 2.62477
ltoes -3.41416
50
root 9.28705 18.533 10.4261 -174.067 -47.2354 175.257
lowerback 7.89322 -5.8799 -2.97976
upperback 1.36272 -8.19517 -1.44679
thorax -2.77818 -4.08713 0.974713
lowerneck -8.57489 4.1453 -4.82062
upperneck 3.84509 6.04002 0.0506127
head 2.56409 2.91387 1.13327
rclavicle -1.21259e-014 1.59028e-014
rhumerus -71.3321 13.1834 -100.237
rradius 88.5871
rwrist -6.63231
rhand -17.9862 24.6432
rfingers 7.12502
rthumb 8.28361 -5.17438
lclavicle -1.21259e-014 1.59028e-014
lhumerus -52.8019 -6.79996 91.2869
lradius 122.171
lwrist 12.9821
lhand -12.5843 -16.3357
lfingers 7.12502
lthumb 13.4939 13.2071
rfemur -30.4129 -2.72076 18.7927
rtibia 48.8051
rfoot -0.361067 -2.31467
rtoes -17.6672
lfemur 13.4337 -4.78951 -26.4489
ltibia 25.3217
lfoot 9.44077 2.18355
ltoes -4.55497
51
root 9.00283 18.6004 10.1271 -173.76 -47.2313 175.043
lowerback 7.43059 -6.00875 -3.09776
upperback 1.29751 -8.35415 -1.42549
thorax -2.56455 -4.16771 1.02265
lowerneck -8.59324 4.22372 -4.72915
upperneck 4.2269 6.14768 0.0173403
head 2.69736 2.96006 1.12129
rclavicle -2.127e-014 -2.14687e-014
rhumerus -71.9788 13.4233 -100.13
rradius 88.8741
rwrist -6.9477
rhand -17.5799 23.9618
rfingers 7.12502
rthumb 8.67576 -5.8399
lclavicle -2.127e-014 -2.14687e-014
lhumerus -53.11 -7.72776 91.6075
lradius 122.241
lwrist 12.5861
lhand -12.3723 -17.0138
lfingers 7.12502
lthumb 13.6982 12.5154
rfemur -29.7788 -1.99925 18.4755
rtibia 44.6554
rfoot -0.782212 -3.442
rtoes -17.8199
lfemur 13.8753 -4.39221 -26.353
ltibia 26.0608
lfoot 10.8926 1.91946
ltoes -5.7367
52
root 8.71793 18.6591 9.82907 -173.438 -47.1818 174.771
lowerback 7.00761 -6.09531 -3.21811
upperback 1.23533 -8.46103 -1.45605
thorax -2.37846 -4.22276 1.01786
lowerneck -8.54403 4.29183 -4.5581
upperneck 4.55354 6.22935 -0.0426304
head 2.80378 2.99517 1.08246
rclavicle -8.87077e-014 3.06128e-014
rhumerus -72.5841 13.5551 -100.023
rradius 89.0252
rwrist -7.29297
rhand -17.2433 23.5658
rfingers 7.12502
rthumb 9.0006 -6.22224
lclavicle -8.87077e-014 3.06128e-014
lhumerus -53.6408 -8.70432 91.925
lradius 122.281
lwrist 12.3207
lhand -12.2596 -17.748
lfingers 7.12502
lthumb 13.8068 11.7738
rfemur -29.095 -1.00735 18.0345
rtibia 40.6449
rfoot -1.24127 -4.95341
rtoes -16.9066
lfemur 14.1454 -4.01417 -26.3477
ltibia 27.2054
lfoot 11.7602 1.83277
ltoes -6.79627
53
root 8.434 18.7025 9.53269 -173.176 -47.1102 174.504
lowerback 6.63363 -6.16148 -3.33721
upperback 1.1975 -8.54174 -1.48109
thorax -2.19424 -4.26542 1.01893
lowerneck -8.50379 4.34074 -4.43491
upperneck 4.84309 6.28921 -0.0953853
head 2.89878 3.01928 1.05263
rclavicle 1.10822e-014 1.59028e-015
rhumerus -73.0916 13.6942 -99.855
rradius 88.9901
rwrist -7.57172
rhand -17.0324 23.4733
rfingers 7.12502
rthumb 9.20407 -6.30584
lclavicle 1.10822e-014 1.59028e-015
lhumerus -54.2837 -9.59838 92.2825
lradius 122.291
lwrist 12.2119
lhand -12.1894 -18.4293
lfingers 7.12502
lthumb 13.8744 11.0879
rfemur -28.3931 0.314371 17.49
rtibia 36.9127
rfoot -2.04329 -6.94461
rtoes -14.7072
lfemur 14.3302 -3.68002 -26.3794
ltibia 28.6802
lfoot 12.1344 1.889
ltoes -7.62489
54
root 8.14999 18.7366 9.23697 -172.94 -46.9969 174.223
lowerback 6.2944 -6.18497 -3.45601
upperback 1.18361 -8.56737 -1.52636
thorax -2.00951 -4.28157 0.997444
lowerneck -8.49887 4.3684 -4.31176
upperneck 5.119 6.32043 -0.121542
head 2.99616 3.03049 1.03099
rclavicle 1.02672e-013 -1.55052e-014
rhumerus -73.4534 13.7715 -99.6499
rradius 88.7818
rwrist -7.86777
rhand -16.904 23.5194
rfingers 7.12502
rthumb 9.32802 -6.25423
lclavicle 1.02672e-013 -1.55052e-014
lhumerus -54.8025 -10.4478 92.672
lradius 122.332
lwrist 12.2382
lhand -12.0226 -18.7135
lfingers 7.12502
lthumb 14.0352 10.7926
rfemur -27.7858 2.05607 16.7942
rtibia 33.6189
rfoot -3.31818 -9.08589
rtoes -13.5788
lfemur 14.409 -3.39715 -26.4604
ltibia 30.4434
lfoot 12.0689 2.11455
ltoes -8.19554
55
root 7.86654 18.7557 8.93945 -172.781 -46.8446 173.971
lowerback 5.98741 -6.17314 -3.56527
upperback 1.17513 -8.54623 -1.57525
thorax -1.84074 -4.27439 0.96774
lowerneck -8.35156 4.3847 -4.20148
upperneck 5.296 6.32926 -0.164952
head 3.03344 3.03221 0.997657
rclavicle 1.19768e-014 1.51076e-014
rhumerus -73.7159 13.7533 -99.4063
rradius 88.3847
rwrist -8.07115
rhand -16.8151 23.681
rfingers 7.12502
rthumb 9.41377 -6.08876
lclavicle 1.19768e-014 1.51076e-014
lhumerus -55.2358 -11.229 93.0807
lradius 122.385
lwrist 12.4058
lhand -11.8594 -18.5755
lfingers 7.12502
lthumb 14.1925 10.9196
rfemur -27.2567 3.96372 16.1108
rtibia 30.8875
rfoot -4.94853 -11.1308
rtoes -13.1484
lfemur 14.4295 -3.09127 -26.5159
ltibia 32.4558
lfoot 11.637 2.4566
ltoes -8.83679
56
root 7.58567 18.7556 8.64031 -172.675 -46.6661 173.704
lowerback 5.73387 -6.12314 -3.71798
upperback 1.19575 -8.47941 -1.63685
thorax -1.66902 -4.24527 0.950345
lowerneck -8.16347 4.38995 -4.11313
upperneck 5.41699 6.32049 -0.174044
head 3.04236 3.02768 0.975653
rclavicle 2.24627e-013 2.34566e-014
rhumerus -73.7822 13.6609 -99.1336
rradius 87.7949
rwrist -8.23361
rhand -16.7561 23.824
rfingers 7.12502
rthumb 9.47065 -5.94322
lclavicle 2.24627e-013 2.34566e-014
lhumerus -55.7134 -11.8113 93.5285
lradius 122.298
lwrist 12.6221
lhand -11.6438 -18.405
lfingers 7.12502
lthumb 14.4002 11.0755
rfemur -26.835 5.98056 15.4564
rtibia 28.7885
rfoot -6.71234 -13.3451
rtoes -12.5208
lfemur 14.4092 -2.76648 -26.5681
ltibia 34.6916
lfoot 10.997 2.88105
ltoes -9.25464
57
root 7.30604 18.7395 8.34407 -172.665 -46.4684 173.505
lowerback 5.57119 -6.04687 -3.82724
upperback 1.20677 -8.37753 -1.66758
thorax -1.56065 -4.19705 0.951375
lowerneck -7.79114 4.41265 -4.01619
upperneck 5.37723 6.32779 -0.281829
head 2.9642 3.03099 0.911071
rclavicle 1.84522e-013 -6.36111e-015
rhumerus -73.7142 13.5754 -98.8196
rradius 87.045
rwrist -8.41321
rhand -16.7654 23.8435
rfingers 7.12502
rthumb 9.46174 -5.92411
lclavicle 1.84522e-013 -6.36111e-015
lhumerus -56.248 -12.064 94.0694
lradius 122.035
lwrist 12.7042
lhand -11.4114 -18.1821
lfingers 7.12502
lthumb 14.6242 11.2822
rfemur -26.5989 8.2317 14.7565
rtibia 27.2729
rfoot -8.60322 -15.8842
rtoes -11.0391
lfemur 14.3348 -2.41331 -26.5764
ltibia 37.1411
lfoot 10.3002 3.30934
ltoes -9.17213
58
root 7.02975 18.6937 8.05901 -172.744 -46.2372 173.317
lowerback 5.56383 -5.93743 -3.87667
upperback 1.22241 -8.23707 -1.7154
thorax -1.54639 -4.12829 0.920153
lowerneck -7.36149 4.42988 -3.91506
upperneck 5.24837 6.32347 -0.391942
head 2.84568 3.03088 0.840942
rclavicle -1.00933e-013 1.15295e-014
rhumerus -73.3359 13.464 -98.5043
rradius 86.1142
rwrist -8.51893
rhand -16.7761 23.6669
rfingers 7.12502
rthumb 9.45139 -6.10121
lclavicle -1.00933e-013 1.15295e-014
lhumerus -56.8043 -12.0846 94.6399
lradius 121.582
lwrist 12.6911
lhand -11.1697 -17.9716
lfingers 7.12502
lthumb 14.857 11.4758
rfemur -26.4741 10.0232 14.1561
rtibia 26.2607
rfoot -10.2059 -17.8299
rtoes -9.56106
lfemur 14.22 -2.01133 -26.6109
ltibia 39.7803
lfoot 9.51664 3.7209
ltoes -8.42429
59
root 6.75685 18.6226 7.78329 -172.952 -46.0076 173.213
lowerback 5.69008 -5.80706 -3.83464
upperback 1.25012 -8.06979 -1.74994
thorax -1.60544 -4.04504 0.866868
lowerneck -6.87857 4.43991 -3.85382
upperneck 5.01641 6.30847 -0.490936
head 2.68166 3.02767 0.777165
rclavicle -9.03973e-014 6.36111e-015
rhumerus -72.614 13.3642 -98.1759
rradius 84.9845
rwrist -8.59802
rhand -16.7774 23.3151
rfingers 7.12502
rthumb 9.45009 -6.453
lclavicle -9.03973e-014 6.36111e-015
lhumerus -57.3377 -11.9564 95.2079
lradius 120.922
lwrist 12.5856
lhand -10.9499 -17.7246
lfingers 7.12502
lthumb 15.0688 11.7069
rfemur -26.3509 10.976 13.867
rtibia 25.6786
rfoot -11.2945 -18.7966
rtoes -9.03116
lfemur 14.0595 -1.64536 -26.6311
ltibia 42.5735
lfoot 8.70236 4.20926
ltoes -7.23535
